<svg width="153" height="153" viewBox="0 0 153 153" fill="none" xmlns="http://www.w3.org/2000/svg">
<path fill-rule="evenodd" clip-rule="evenodd" d="M153 76.5351C153 76.5234 153 76.5117 153 76.5C153 76.4884 153 76.4767 153 76.4651C152.999 73.3208 152.807 70.2209 152.438 67.1761H97.7241L136.218 28.6827C132.424 23.9512 128.08 19.6801 123.282 15.9669L85.5692 53.6797V0.531963C82.6017 0.181468 79.5823 0.000817615 76.5208 2.76898e-06C76.5139 9.23032e-07 76.5069 0 76.5 0C76.4931 0 76.4861 9.27282e-07 76.4792 2.78173e-06C73.4177 0.0008195 70.3982 0.181471 67.4308 0.531967V54.3504L29.341 16.2606C24.5673 20.003 20.2496 24.3005 16.4851 29.0561L54.6051 67.1761H0.562486C0.192039 70.2248 0.000923045 73.3287 3.33535e-06 76.4772C1.11183e-06 76.4848 0 76.4924 0 76.5C0 76.5076 1.1173e-06 76.5153 3.35175e-06 76.5229C0.000874008 79.4961 0.171359 82.4297 0.502309 85.3144H53.9344L15.9669 123.282C16.8819 124.464 17.8307 125.619 18.812 126.745L26.2554 134.188C27.0502 134.881 27.8595 135.558 28.6827 136.218L67.4308 97.4694V152.468C70.3938 152.818 73.4086 152.999 76.4654 153C76.4769 153 76.4885 153 76.5 153C76.5115 153 76.523 153 76.5345 153C79.5913 152.999 82.6061 152.818 85.5692 152.468V98.1402L123.845 136.416L136.671 123.591L98.3949 85.3144H152.498C152.828 82.4336 152.999 79.5041 153 76.5351Z" fill="black"/>
</svg>
