<svg width="178" height="33" viewBox="0 0 178 33" fill="none" xmlns="http://www.w3.org/2000/svg">
<path d="M0 31.824V8.352H3.696V11.232H4.368C4.784 10.208 5.424 9.456 6.288 8.976C7.152 8.496 8.288 8.256 9.696 8.256H12.48V11.712H9.456C7.76 11.712 6.384 12.192 5.328 13.152C4.304 14.08 3.792 15.536 3.792 17.52V31.824H0Z" fill="black"/>
<path d="M25.016 32.496C22.648 32.496 20.552 32 18.728 31.008C16.936 30.016 15.528 28.624 14.504 26.832C13.512 25.008 13.016 22.864 13.016 20.4V19.776C13.016 17.344 13.512 15.216 14.504 13.392C15.528 11.568 16.936 10.16 18.728 9.168C20.552 8.176 22.648 7.68 25.016 7.68C27.384 7.68 29.464 8.176 31.256 9.168C33.08 10.16 34.488 11.568 35.48 13.392C36.504 15.216 37.016 17.344 37.016 19.776V20.4C37.016 22.864 36.504 25.008 35.48 26.832C34.488 28.624 33.08 30.016 31.256 31.008C29.464 32 27.384 32.496 25.016 32.496ZM25.016 29.088C27.512 29.088 29.496 28.304 30.968 26.736C32.472 25.136 33.224 22.992 33.224 20.304V19.872C33.224 17.184 32.472 15.056 30.968 13.488C29.496 11.888 27.512 11.088 25.016 11.088C22.552 11.088 20.568 11.888 19.064 13.488C17.56 15.056 16.808 17.184 16.808 19.872V20.304C16.808 22.992 17.56 25.136 19.064 26.736C20.568 28.304 22.552 29.088 25.016 29.088Z" fill="black"/>
<path d="M49.1379 32.256C47.4419 32.256 45.8739 31.888 44.4339 31.152C43.0259 30.416 41.9059 29.328 41.0739 27.888C40.2739 26.416 39.8739 24.64 39.8739 22.56V8.352H43.6659V22.272C43.6659 24.608 44.2419 26.304 45.3939 27.36C46.5779 28.416 48.1619 28.944 50.1459 28.944C52.3859 28.944 54.2259 28.208 55.6659 26.736C57.1059 25.264 57.8259 23.072 57.8259 20.16V8.352H61.6179V31.824H57.9219V27.84H57.2499C56.7379 28.96 55.8579 29.984 54.6099 30.912C53.3619 31.808 51.5379 32.256 49.1379 32.256Z" fill="black"/>
<path d="M75.3125 31.824C73.9685 31.824 72.9285 31.456 72.1925 30.72C71.4885 29.984 71.1365 28.976 71.1365 27.696V11.664H64.0805V8.352H71.1365V0H74.9285V8.352H82.6085V11.664H74.9285V27.12C74.9285 28.08 75.3925 28.56 76.3205 28.56H81.5525V31.824H75.3125Z" fill="black"/>
<path d="M95.7789 32.496C93.4109 32.496 91.3309 32 89.5389 31.008C87.7469 29.984 86.3549 28.56 85.3629 26.736C84.3709 24.912 83.8749 22.8 83.8749 20.4V19.824C83.8749 17.392 84.3709 15.264 85.3629 13.44C86.3549 11.616 87.7309 10.208 89.4909 9.216C91.2509 8.192 93.2669 7.68 95.5389 7.68C97.7469 7.68 99.6989 8.16 101.395 9.12C103.091 10.048 104.419 11.392 105.379 13.152C106.339 14.912 106.819 16.976 106.819 19.344V21.072H87.6669C87.7629 23.6 88.5789 25.584 90.1149 27.024C91.6509 28.432 93.5709 29.136 95.8749 29.136C97.8909 29.136 99.4429 28.672 100.531 27.744C101.619 26.816 102.451 25.712 103.027 24.432L106.291 26.016C105.811 27.008 105.139 28 104.275 28.992C103.443 29.984 102.339 30.816 100.963 31.488C99.6189 32.16 97.8909 32.496 95.7789 32.496ZM87.7149 17.952H102.979C102.851 15.776 102.099 14.08 100.723 12.864C99.3789 11.648 97.6509 11.04 95.5389 11.04C93.3949 11.04 91.6349 11.648 90.2589 12.864C88.8829 14.08 88.0349 15.776 87.7149 17.952Z" fill="black"/>
<path d="M109.553 31.824V8.352H113.249V11.232H113.921C114.337 10.208 114.977 9.456 115.841 8.976C116.705 8.496 117.841 8.256 119.249 8.256H122.033V11.712H119.009C117.313 11.712 115.937 12.192 114.881 13.152C113.857 14.08 113.345 15.536 113.345 17.52V31.824H109.553Z" fill="black"/>
<path d="M141.437 32.496C138.525 32.496 136.061 31.824 134.045 30.48C132.061 29.136 130.861 27.008 130.445 24.096L134.045 23.28C134.301 24.816 134.781 26.032 135.485 26.928C136.189 27.792 137.053 28.416 138.077 28.8C139.133 29.152 140.253 29.328 141.437 29.328C143.197 29.328 144.589 28.976 145.613 28.272C146.637 27.568 147.149 26.624 147.149 25.44C147.149 24.224 146.653 23.376 145.661 22.896C144.701 22.384 143.373 21.968 141.677 21.648L139.709 21.312C138.205 21.056 136.829 20.656 135.581 20.112C134.333 19.568 133.341 18.832 132.605 17.904C131.869 16.976 131.501 15.808 131.501 14.4C131.501 12.288 132.317 10.64 133.949 9.456C135.581 8.272 137.741 7.68 140.429 7.68C143.085 7.68 145.229 8.288 146.861 9.504C148.525 10.688 149.597 12.368 150.077 14.544L146.525 15.456C146.237 13.76 145.549 12.576 144.461 11.904C143.373 11.2 142.029 10.848 140.429 10.848C138.829 10.848 137.565 11.152 136.637 11.76C135.709 12.336 135.245 13.2 135.245 14.352C135.245 15.472 135.677 16.304 136.541 16.848C137.437 17.36 138.621 17.744 140.093 18L142.061 18.336C143.725 18.624 145.213 19.024 146.525 19.536C147.869 20.016 148.925 20.72 149.693 21.648C150.493 22.576 150.893 23.792 150.893 25.296C150.893 27.6 150.029 29.376 148.301 30.624C146.605 31.872 144.317 32.496 141.437 32.496Z" fill="black"/>
<path d="M165.261 32.496C162.893 32.496 160.797 32 158.973 31.008C157.181 30.016 155.773 28.624 154.749 26.832C153.757 25.008 153.261 22.864 153.261 20.4V19.776C153.261 17.344 153.757 15.216 154.749 13.392C155.773 11.568 157.181 10.16 158.973 9.168C160.797 8.176 162.893 7.68 165.261 7.68C167.629 7.68 169.709 8.176 171.501 9.168C173.325 10.16 174.733 11.568 175.725 13.392C176.749 15.216 177.261 17.344 177.261 19.776V20.4C177.261 22.864 176.749 25.008 175.725 26.832C174.733 28.624 173.325 30.016 171.501 31.008C169.709 32 167.629 32.496 165.261 32.496ZM165.261 29.088C167.757 29.088 169.741 28.304 171.213 26.736C172.717 25.136 173.469 22.992 173.469 20.304V19.872C173.469 17.184 172.717 15.056 171.213 13.488C169.741 11.888 167.757 11.088 165.261 11.088C162.797 11.088 160.813 11.888 159.309 13.488C157.805 15.056 157.053 17.184 157.053 19.872V20.304C157.053 22.992 157.805 25.136 159.309 26.736C160.813 28.304 162.797 29.088 165.261 29.088Z" fill="black"/>
<path d="M124.016 31.824C123.163 31.824 122.442 31.5446 121.854 30.9858C121.295 30.4269 121.016 29.7064 121.016 28.824C121.016 27.9417 121.295 27.2211 121.854 26.6622C122.442 26.1034 123.163 25.824 124.016 25.824C124.898 25.824 125.619 26.1034 126.178 26.6622C126.737 27.2211 127.016 27.9417 127.016 28.824C127.016 29.7064 126.737 30.4269 126.178 30.9858C125.619 31.5446 124.898 31.824 124.016 31.824Z" fill="black"/>
</svg>
