<svg width="20" height="20" viewBox="0 0 20 20" fill="none" xmlns="http://www.w3.org/2000/svg">
<path fill-rule="evenodd" clip-rule="evenodd" d="M19.9343 11.1522H12.8621L17.8655 16.1556L16.1889 17.8322L11.1855 12.8287V19.9305C10.7992 19.9761 10.4061 19.9997 10.0076 20C10.0051 20 10.0025 20 10 20C9.99745 20 9.9949 20 9.99234 20C9.59383 19.9997 9.20077 19.9761 8.81445 19.9305V12.7412L3.7494 17.8062C3.64169 17.7199 3.53581 17.6313 3.43182 17.5407L2.45931 16.5682C2.33096 16.4209 2.20686 16.2699 2.08719 16.1153L7.05027 11.1522H0.0656621C0.0222891 10.7742 0 10.3897 0 10C0 9.58742 0.0249858 9.18067 0.0735268 8.7812H7.13795L2.15492 3.79816C2.64701 3.17653 3.21142 2.61476 3.83544 2.12555L8.81445 7.10457V0.0695422C9.20324 0.023619 9.59886 0 10 0C10.4011 0 10.7967 0.0236161 11.1855 0.0695337V7.01702L16.1153 2.08719C16.7425 2.57259 17.3103 3.13089 17.8062 3.7494L12.7744 8.7812H19.9265C19.975 9.18067 20 9.58742 20 10C20 10.3897 19.9777 10.7742 19.9343 11.1522ZM3.72338 17.2868L8.81445 12.1957V12.1955L3.72332 17.2867L3.72338 17.2868ZM9.20016 7.49027V0.385708L10.7998 0.385708L9.20017 0.38571V7.49028L9.20016 7.49027ZM3.72338 2.55897L8.81445 7.65004V7.65009L3.72335 2.55899L3.72338 2.55897ZM9.20016 8.03575V8.0358L9.20017 8.0358V8.03576L9.20016 8.03575ZM9.20017 11.8098L9.20016 11.8098V11.81L9.20017 11.81V11.8098ZM17.32 16.1556L12.3166 11.1522H12.3166L17.32 16.1556L16.1889 17.2867L16.1889 17.2867L17.32 16.1556ZM11.9309 10.7665H11.9309L11.9309 10.7664H11.9308L11.9309 10.7665ZM12.4763 10.7664L12.4764 10.7665H19.6143L19.6143 10.7664H12.4763ZM7.43605 10.7664H0.385709L0.385707 9.1669L0.385707 10.7665H7.43598L7.43605 10.7664ZM17.32 3.69002L12.2288 8.7812H12.229L17.32 3.69011L17.32 3.69002Z" fill="#222222"/>
</svg>
