<svg width="203" height="46" viewBox="0 0 203 46" fill="none" xmlns="http://www.w3.org/2000/svg">
<path d="M0 44.824V21.352H3.696V24.232H4.368C4.784 23.208 5.424 22.456 6.288 21.976C7.152 21.496 8.288 21.256 9.696 21.256H12.48V24.712H9.456C7.76 24.712 6.384 25.192 5.328 26.152C4.304 27.08 3.792 28.536 3.792 30.52V44.824H0Z" fill="black"/>
<path d="M25.016 45.496C22.648 45.496 20.552 45 18.728 44.008C16.936 43.016 15.528 41.624 14.504 39.832C13.512 38.008 13.016 35.864 13.016 33.4V32.776C13.016 30.344 13.512 28.216 14.504 26.392C15.528 24.568 16.936 23.16 18.728 22.168C20.552 21.176 22.648 20.68 25.016 20.68C27.384 20.68 29.464 21.176 31.256 22.168C33.08 23.16 34.488 24.568 35.48 26.392C36.504 28.216 37.016 30.344 37.016 32.776V33.4C37.016 35.864 36.504 38.008 35.48 39.832C34.488 41.624 33.08 43.016 31.256 44.008C29.464 45 27.384 45.496 25.016 45.496ZM25.016 42.088C27.512 42.088 29.496 41.304 30.968 39.736C32.472 38.136 33.224 35.992 33.224 33.304V32.872C33.224 30.184 32.472 28.056 30.968 26.488C29.496 24.888 27.512 24.088 25.016 24.088C22.552 24.088 20.568 24.888 19.064 26.488C17.56 28.056 16.808 30.184 16.808 32.872V33.304C16.808 35.992 17.56 38.136 19.064 39.736C20.568 41.304 22.552 42.088 25.016 42.088Z" fill="black"/>
<path d="M49.1379 45.256C47.4419 45.256 45.8739 44.888 44.4339 44.152C43.0259 43.416 41.9059 42.328 41.0739 40.888C40.2739 39.416 39.8739 37.64 39.8739 35.56V21.352H43.6659V35.272C43.6659 37.608 44.2419 39.304 45.3939 40.36C46.5779 41.416 48.1619 41.944 50.1459 41.944C52.3859 41.944 54.2259 41.208 55.6659 39.736C57.1059 38.264 57.8259 36.072 57.8259 33.16V21.352H61.6179V44.824H57.9219V40.84H57.2499C56.7379 41.96 55.8579 42.984 54.6099 43.912C53.3619 44.808 51.5379 45.256 49.1379 45.256Z" fill="black"/>
<path d="M75.3125 44.824C73.9685 44.824 72.9285 44.456 72.1925 43.72C71.4885 42.984 71.1365 41.976 71.1365 40.696V24.664H64.0805V21.352H71.1365V13H74.9285V21.352H82.6085V24.664H74.9285V40.12C74.9285 41.08 75.3925 41.56 76.3205 41.56H81.5525V44.824H75.3125Z" fill="black"/>
<path d="M95.7789 45.496C93.4109 45.496 91.3309 45 89.5389 44.008C87.7469 42.984 86.3549 41.56 85.3629 39.736C84.3709 37.912 83.8749 35.8 83.8749 33.4V32.824C83.8749 30.392 84.3709 28.264 85.3629 26.44C86.3549 24.616 87.7309 23.208 89.4909 22.216C91.2509 21.192 93.2669 20.68 95.5389 20.68C97.7469 20.68 99.6989 21.16 101.395 22.12C103.091 23.048 104.419 24.392 105.379 26.152C106.339 27.912 106.819 29.976 106.819 32.344V34.072H87.6669C87.7629 36.6 88.5789 38.584 90.1149 40.024C91.6509 41.432 93.5709 42.136 95.8749 42.136C97.8909 42.136 99.4429 41.672 100.531 40.744C101.619 39.816 102.451 38.712 103.027 37.432L106.291 39.016C105.811 40.008 105.139 41 104.275 41.992C103.443 42.984 102.339 43.816 100.963 44.488C99.6189 45.16 97.8909 45.496 95.7789 45.496ZM87.7149 30.952H102.979C102.851 28.776 102.099 27.08 100.723 25.864C99.3789 24.648 97.6509 24.04 95.5389 24.04C93.3949 24.04 91.6349 24.648 90.2589 25.864C88.8829 27.08 88.0349 28.776 87.7149 30.952Z" fill="black"/>
<path d="M109.553 44.824V21.352H113.249V24.232H113.921C114.337 23.208 114.977 22.456 115.841 21.976C116.705 21.496 117.841 21.256 119.249 21.256H122.033V24.712H119.009C117.313 24.712 115.937 25.192 114.881 26.152C113.857 27.08 113.345 28.536 113.345 30.52V44.824H109.553Z" fill="black"/>
<path d="M141.437 45.496C138.525 45.496 136.061 44.824 134.045 43.48C132.061 42.136 130.861 40.008 130.445 37.096L134.045 36.28C134.301 37.816 134.781 39.032 135.485 39.928C136.189 40.792 137.053 41.416 138.077 41.8C139.133 42.152 140.253 42.328 141.437 42.328C143.197 42.328 144.589 41.976 145.613 41.272C146.637 40.568 147.149 39.624 147.149 38.44C147.149 37.224 146.653 36.376 145.661 35.896C144.701 35.384 143.373 34.968 141.677 34.648L139.709 34.312C138.205 34.056 136.829 33.656 135.581 33.112C134.333 32.568 133.341 31.832 132.605 30.904C131.869 29.976 131.501 28.808 131.501 27.4C131.501 25.288 132.317 23.64 133.949 22.456C135.581 21.272 137.741 20.68 140.429 20.68C143.085 20.68 145.229 21.288 146.861 22.504C148.525 23.688 149.597 25.368 150.077 27.544L146.525 28.456C146.237 26.76 145.549 25.576 144.461 24.904C143.373 24.2 142.029 23.848 140.429 23.848C138.829 23.848 137.565 24.152 136.637 24.76C135.709 25.336 135.245 26.2 135.245 27.352C135.245 28.472 135.677 29.304 136.541 29.848C137.437 30.36 138.621 30.744 140.093 31L142.061 31.336C143.725 31.624 145.213 32.024 146.525 32.536C147.869 33.016 148.925 33.72 149.693 34.648C150.493 35.576 150.893 36.792 150.893 38.296C150.893 40.6 150.029 42.376 148.301 43.624C146.605 44.872 144.317 45.496 141.437 45.496Z" fill="black"/>
<path d="M165.261 45.496C162.893 45.496 160.797 45 158.973 44.008C157.181 43.016 155.773 41.624 154.749 39.832C153.757 38.008 153.261 35.864 153.261 33.4V32.776C153.261 30.344 153.757 28.216 154.749 26.392C155.773 24.568 157.181 23.16 158.973 22.168C160.797 21.176 162.893 20.68 165.261 20.68C167.629 20.68 169.709 21.176 171.501 22.168C173.325 23.16 174.733 24.568 175.725 26.392C176.749 28.216 177.261 30.344 177.261 32.776V33.4C177.261 35.864 176.749 38.008 175.725 39.832C174.733 41.624 173.325 43.016 171.501 44.008C169.709 45 167.629 45.496 165.261 45.496ZM165.261 42.088C167.757 42.088 169.741 41.304 171.213 39.736C172.717 38.136 173.469 35.992 173.469 33.304V32.872C173.469 30.184 172.717 28.056 171.213 26.488C169.741 24.888 167.757 24.088 165.261 24.088C162.797 24.088 160.813 24.888 159.309 26.488C157.805 28.056 157.053 30.184 157.053 32.872V33.304C157.053 35.992 157.805 38.136 159.309 39.736C160.813 41.304 162.797 42.088 165.261 42.088Z" fill="black"/>
<path d="M124.016 44.824C123.163 44.824 122.442 44.5446 121.854 43.9858C121.295 43.4269 121.016 42.7064 121.016 41.824C121.016 40.9417 121.295 40.2211 121.854 39.6622C122.442 39.1034 123.163 38.824 124.016 38.824C124.898 38.824 125.619 39.1034 126.178 39.6622C126.737 40.2211 127.016 40.9417 127.016 41.824C127.016 42.7064 126.737 43.4269 126.178 43.9858C125.619 44.5446 124.898 44.824 124.016 44.824Z" fill="black"/>
<path fill-rule="evenodd" clip-rule="evenodd" d="M202.915 14.4979C202.971 14.008 203 13.5099 203 13.0051C203 13.0034 203 13.0017 203 13C203 12.9983 203 12.9966 203 12.9949C203 12.4603 202.967 11.9332 202.904 11.4155H193.607L200.148 4.87418C199.503 4.07013 198.765 3.34433 197.95 2.71332L191.541 9.12201V0.0903993C191.036 0.0307028 190.521 0 190 0C189.479 0 188.964 0.0307028 188.459 0.0903994V9.23599L181.986 2.76322C181.175 3.39919 180.441 4.12949 179.801 4.93762L186.279 11.4155H177.096C177.032 11.9349 177 12.4636 177 13C177 13.5066 177.029 14.0064 177.085 14.4979H186.165L179.713 20.9499C179.869 21.1507 180.03 21.3469 180.197 21.5382L181.462 22.8032C181.597 22.921 181.734 23.0359 181.874 23.1481L188.459 16.5634V25.9096C188.962 25.969 189.474 25.9997 189.993 26C189.995 26 189.998 26 190 26C190.002 26 190.005 26 190.007 26C190.526 25.9997 191.038 25.969 191.541 25.9096V16.6774L198.046 23.1819L200.225 21.0023L193.721 14.4979H202.915ZM181.84 3.32668L188.459 9.94511L181.84 3.32666L180.37 4.79708L180.37 4.79709L181.84 3.32668ZM181.84 22.4727L181.84 22.4727L188.459 15.8543L181.84 22.4727Z" fill="black"/>
</svg>
