<svg width="346" height="89" viewBox="0 0 346 89" fill="none" xmlns="http://www.w3.org/2000/svg">
<circle cx="44.5" cy="44.5" r="44.5" fill="url(#paint0_radial_39_4)"/>
<path d="M321.188 74.2C316.452 74.2 312.26 73.208 308.612 71.224C305.028 69.24 302.212 66.456 300.164 62.872C298.18 59.224 297.188 54.936 297.188 50.008V48.76C297.188 43.896 298.18 39.64 300.164 35.992C302.212 32.344 305.028 29.528 308.612 27.544C312.26 25.56 316.452 24.568 321.188 24.568C325.924 24.568 330.084 25.56 333.668 27.544C337.316 29.528 340.132 32.344 342.116 35.992C344.164 39.64 345.188 43.896 345.188 48.76V50.008C345.188 54.936 344.164 59.224 342.116 62.872C340.132 66.456 337.316 69.24 333.668 71.224C330.084 73.208 325.924 74.2 321.188 74.2ZM321.188 67.384C326.18 67.384 330.148 65.816 333.092 62.68C336.1 59.48 337.604 55.192 337.604 49.816V48.952C337.604 43.576 336.1 39.32 333.092 36.184C330.148 32.984 326.18 31.384 321.188 31.384C316.26 31.384 312.292 32.984 309.284 36.184C306.276 39.32 304.772 43.576 304.772 48.952V49.816C304.772 55.192 306.276 59.48 309.284 62.68C312.292 65.816 316.26 67.384 321.188 67.384Z" fill="#F5F5F5"/>
<path d="M284.96 73.856V26.912H292.544V73.856H284.96ZM288.8 19.616C287.136 19.616 285.728 19.072 284.576 17.984C283.488 16.896 282.944 15.52 282.944 13.856C282.944 12.128 283.488 10.72 284.576 9.632C285.728 8.544 287.136 8 288.8 8C290.464 8 291.84 8.544 292.928 9.632C294.016 10.72 294.56 12.128 294.56 13.856C294.56 15.52 294.016 16.896 292.928 17.984C291.84 19.072 290.464 19.616 288.8 19.616Z" fill="#F5F5F5"/>
<path d="M269.807 74.2C267.951 74.2 266.383 73.592 265.103 72.376C263.887 71.16 263.279 69.592 263.279 67.672C263.279 65.752 263.887 64.184 265.103 62.968C266.383 61.752 267.951 61.144 269.807 61.144C271.727 61.144 273.295 61.752 274.511 62.968C275.727 64.184 276.335 65.752 276.335 67.672C276.335 69.592 275.727 71.16 274.511 72.376C273.295 73.592 271.727 74.2 269.807 74.2Z" fill="#F5F5F5"/>
<path d="M246.585 72.856V25.912H253.977V31.672H255.321C256.153 29.624 257.433 28.12 259.161 27.16C260.889 26.2 263.161 25.72 265.977 25.72H271.545V32.632H265.497C262.105 32.632 259.353 33.592 257.241 35.512C255.193 37.368 254.169 40.28 254.169 44.248V72.856H246.585Z" fill="#F5F5F5"/>
<path d="M225.709 72.856C223.021 72.856 220.941 72.12 219.469 70.648C218.061 69.176 217.357 67.16 217.357 64.6V32.536H203.245V25.912H217.357V9.20801H224.941V25.912H240.301V32.536H224.941V63.448C224.941 65.368 225.869 66.328 227.725 66.328H238.189V72.856H225.709Z" fill="#F5F5F5"/>
<path d="M183.6 73.72C180.208 73.72 177.072 72.984 174.192 71.512C171.376 70.04 169.136 67.864 167.472 64.984C165.872 62.04 165.072 58.488 165.072 54.328V25.912H172.656V53.752C172.656 58.424 173.808 61.816 176.112 63.928C178.48 66.04 181.648 67.096 185.616 67.096C190.096 67.096 193.776 65.624 196.656 62.68C199.536 59.736 200.976 55.352 200.976 49.528V25.912H208.56V72.856H201.168V64.888H199.824C198.8 67.128 197.04 69.176 194.544 71.032C192.048 72.824 188.4 73.72 183.6 73.72Z" fill="#F5F5F5"/>
<path d="M137 74.2C132.264 74.2 128.072 73.208 124.424 71.224C120.84 69.24 118.024 66.456 115.976 62.872C113.992 59.224 113 54.936 113 50.008V48.76C113 43.896 113.992 39.64 115.976 35.992C118.024 32.344 120.84 29.528 124.424 27.544C128.072 25.56 132.264 24.568 137 24.568C141.736 24.568 145.896 25.56 149.48 27.544C153.128 29.528 155.944 32.344 157.928 35.992C159.976 39.64 161 43.896 161 48.76V50.008C161 54.936 159.976 59.224 157.928 62.872C155.944 66.456 153.128 69.24 149.48 71.224C145.896 73.208 141.736 74.2 137 74.2ZM137 67.384C141.992 67.384 145.96 65.816 148.904 62.68C151.912 59.48 153.416 55.192 153.416 49.816V48.952C153.416 43.576 151.912 39.32 148.904 36.184C145.96 32.984 141.992 31.384 137 31.384C132.072 31.384 128.104 32.984 125.096 36.184C122.088 39.32 120.584 43.576 120.584 48.952V49.816C120.584 55.192 122.088 59.48 125.096 62.68C128.104 65.816 132.072 67.384 137 67.384Z" fill="#F5F5F5"/>
<defs>
<radialGradient id="paint0_radial_39_4" cx="0" cy="0" r="1" gradientUnits="userSpaceOnUse" gradientTransform="translate(56.96 34.3286) rotate(102.839) scale(56.0733)">
<stop stop-color="#D6B2FF"/>
<stop offset="0.3125" stop-color="#B77DFE"/>
<stop offset="0.776042" stop-color="#9D4FFF"/>
</radialGradient>
</defs>
</svg>
